<svg id="Layer_1" data-name="Layer 1" xmlns="http://www.w3.org/2000/svg" viewBox="0 0 418 418"><defs><style>.cls-1{fill:#b8553f;}.cls-2{fill:#fff;}.cls-3{fill:#dcf048;}</style></defs><title>Logo_LightMode_PitOnly</title><circle class="cls-1" cx="208.93" cy="208.81" r="208.24"/><path class="cls-2" d="M253.67,192.2Q241.33,238.13,229,284.05c-2.3,8.52-5,17-7,25.54-1.09,4.64-2.44,9.06-10.13,8.66-6.69-.36-9.91-4.12-10.83-8.86-2.52-12.9-4.81-25.83-7.48-38.71-7.43-35.86-15-71.7-22.54-107.55l-3.85-.22q-7.93,29.44-15.9,58.89c-2.2,8.09-4.67,16.15-6.74,24.26-1.32,5.2-4.31,9.27-12,9.6-7.44.33-9.42-4.49-11.8-8.35-7.51-12.18-12-25.36-23-38.38-8.24,13.21-22.88,13.44-38.29,13-13.45-.38-26.95.12-40.43.14-5.79,0-11-1.46-11.34-6.27-.4-5.81,5.4-7,11.87-7,12.9,0,25.82-.5,38.67.05,11.28.48,18.41-1.92,23.52-10.05,3.35-5.34,5.14-13.66,16.4-13.63,11.91,0,11.34,8.85,15.15,14.21,5.41,7.63,9.65,15.72,15.4,25.28,7.78-11.61,8.43-22.78,11.41-33.36,6.83-24.24,12.49-48.65,18.91-72.95,1.32-5,2.68-11.07,12.14-10.79,8.62.25,9.3,6.18,10.22,10.64,5.44,26.63,10.37,53.31,15.52,80,4.55,23.58,9.17,47.16,16.85,70.78,6.14-24.22,12.13-48.47,18.49-72.67,3.47-13.2,7.38-26.35,11.49-39.45,1.15-3.66,2.36-8,9.37-8.19s8.73,4,10,7.68c6.3,17.18,12.09,34.47,18.23,51.68,2.39,6.7,5.24,13.31,8,20.25,1.42-1,2.76-1.49,3-2.18,5.55-17.32,20.74-21.52,43.11-19.73,18.52,1.49,37.46.05,56.2.24,8.23.09,20.18-2.17,19.67,7.9s-12.74,7.22-20.54,6.8c-19.88-1.09-39.74-1.22-59.64-1.52-10.73-.17-17.74,1.74-20.54,10.31-2.34,7.15-6.35,14-9.77,20.95-2,4-3.28,8.42-11.37,8.19-8.27-.25-10.93-4.11-12.47-9.12-3.25-10.58-6.16-21.23-9.85-31.72C264.09,209.68,262.75,200.59,253.67,192.2Z"/><path class="cls-3" d="M287.54,168.36c-4.15-24.71,8.21-40,34-44.65A169,169,0,0,1,347.45,121c6.89-.17,11.15,2.85,9.93,10.24-2.21,13.35-5.36,26.29-14.06,37.4-10.77,13.76-37.41,21.83-50.85,7.71.89-11.57,12.17-14.54,17.42-21.33-3.61,2.74-7.57,6.46-11.57,10.16C295.39,167.87,292.62,172.36,287.54,168.36Z"/><path class="cls-1" d="M287.6,168.36c9.87-1.39,13.17-11.84,21.4-15.58,2.6-1.18,4-4.56,8.79-4.63-6.33,12-18.71,17.61-25.26,28.17C289,174.84,287.16,172.31,287.6,168.36Z"/></svg>