<svg id="Layer_1" data-name="Layer 1" xmlns="http://www.w3.org/2000/svg" viewBox="0 0 513.49 512"><defs><style>.cls-1{fill:#526c19;}.cls-2{fill:#dcf048;}.cls-3{fill:#e9876f;}.cls-4{fill:#fff;}.cls-5{fill:#b8553f;}.cls-6{fill:#6f3a3c;}</style></defs><title>Logo_MascotOnlySmall4Favicon</title><path class="cls-1" d="M261.28,62.18c33.6,1.56,63.44,17,86.29,45.8,14.74,18.57,24.17,40,29.36,62.85,6.31,27.73,17.67,52.89,32.4,77,10.61,17.35,19.28,35.72,23.85,55.78,10.62,46.56,2.25,89.67-24.21,129.08-23.25,34.64-55.47,58-95.52,69.15C239,522.54,173.77,505,122.2,447.76,79.29,400.12,71,343.67,92.58,283.24c6.11-17.06,15-32.86,24-48.57a154.43,154.43,0,0,0,17.62-45.52c5.88-28.44,15.86-55.3,33.47-78.7C190.22,80.5,219.56,62.78,261.28,62.18Z"/><path class="cls-2" d="M260.47,497.52C211.4,497,169,479.89,134.69,444.65c-30.34-31.2-44.49-69.25-42.23-112.8,1.43-27.48,11.16-52.63,24.78-76.28s24.5-48.33,30.23-75.43c6.52-30.82,20.65-58.2,43.42-80.6C222.51,68.42,269.82,65.35,304.75,85c29.52,16.61,45.43,42.43,56.55,72.65a212.67,212.67,0,0,1,8.29,29.25c3.85,18.2,11.77,34.59,21.37,50.33,12.28,20.13,23.45,40.8,29.54,63.8,9.67,36.49,6,71.74-10.75,105.43-24,48.44-64.22,75.86-116,87.77A137.31,137.31,0,0,1,260.47,497.52Z"/><path class="cls-1" d="M254.1,222.87c-10.88.11-20.6-5.51-23.2-12.87-.88-2.48-1.52-5.21,1.49-6.52,3.46-1.51,4.14,1.37,5.43,3.58,6.5,11.15,26.45,11.74,34.71,1.1a36.68,36.68,0,0,0,2.2-4.11,3.75,3.75,0,0,1,5-1.66c2.33.94,2.32,2.83,1.68,4.7-1.8,5.32-5.86,9-10.94,11.58C265.2,221.38,259.44,223,254.1,222.87Z"/><path class="cls-3" d="M336.92,187.51c3.08.24,5.44,2.22,5.58,6.38.15,4.7-6.81,11.51-11.75,11.29-4.14-.19-6.14-2.7-6.07-6.77C324.75,194,331.66,187.45,336.92,187.51Z"/><path class="cls-3" d="M175.42,200.61c0,3.35-3.44,5.48-6.91,4a18.55,18.55,0,0,1-9.72-9.74c-.87-1.91-1-3.88.33-5.62,1.6-2,3.93-2,6.14-1.53C169,188.58,175.45,196.89,175.42,200.61Z"/><circle class="cls-3" cx="261.3" cy="353.03" r="118.43"/><path class="cls-4" d="M286.74,343.59q-7,26.12-14,52.23c-1.3,4.85-2.82,9.66-4,14.53-.62,2.64-1.39,5.15-5.76,4.92-3.8-.2-5.63-2.34-6.16-5-1.43-7.34-2.73-14.69-4.25-22q-6.34-30.6-12.82-61.17l-2.19-.12q-4.52,16.74-9,33.49c-1.25,4.6-2.66,9.18-3.83,13.79-.76,3-2.46,5.28-6.84,5.47-4.23.18-5.36-2.56-6.71-4.75-4.27-6.93-6.85-14.43-13.06-21.83-4.69,7.51-13,7.64-21.78,7.39-7.65-.22-15.32.07-23,.08-3.29,0-6.26-.84-6.45-3.57-.23-3.3,3.07-4,6.76-4,7.33,0,14.68-.29,22,0,6.42.27,10.48-1.1,13.38-5.72,1.91-3,2.92-7.77,9.33-7.75,6.77,0,6.45,5,8.61,8.08C210,352,212.4,356.6,215.67,362c4.43-6.6,4.8-13,6.49-19,3.88-13.78,7.1-27.66,10.75-41.48.76-2.86,1.53-6.3,6.91-6.14,4.9.14,5.29,3.51,5.81,6.06,3.09,15.14,5.9,30.31,8.83,45.47,2.59,13.41,5.21,26.82,9.58,40.25,3.49-13.78,6.9-27.57,10.52-41.33,2-7.51,4.2-15,6.53-22.43.65-2.08,1.34-4.54,5.33-4.66s5,2.3,5.72,4.36c3.58,9.78,6.87,19.61,10.36,29.4,1.36,3.81,3,7.57,4.55,11.51.8-.57,1.57-.84,1.69-1.24,3.16-9.84,11.8-12.24,24.52-11.21,10.53.84,21.3,0,32,.13,4.68.05,11.48-1.23,11.19,4.49s-7.25,4.11-11.68,3.87c-11.31-.62-22.61-.69-33.92-.87-6.11-.09-10.09,1-11.68,5.87-1.34,4.06-3.62,8-5.56,11.91-1.13,2.3-1.86,4.79-6.47,4.66s-6.21-2.34-7.09-5.19c-1.85-6-3.5-12.07-5.6-18C292.67,353.53,291.91,348.36,286.74,343.59Z"/><path class="cls-2" d="M306,330c-2.36-14,4.67-22.72,19.33-25.39a96.37,96.37,0,0,1,14.74-1.56c3.92-.09,6.34,1.63,5.65,5.83-1.26,7.59-3.06,15-8,21.27-6.13,7.82-21.28,12.41-28.92,4.38.51-6.58,6.92-8.26,9.91-12.13-2.05,1.56-4.31,3.68-6.58,5.78C310.47,329.75,308.89,332.3,306,330Z"/><path class="cls-3" d="M306,330c5.61-.78,7.49-6.73,12.17-8.85,1.48-.67,2.26-2.6,5-2.64-3.6,6.83-10.64,10-14.37,16A4,4,0,0,1,306,330Z"/><circle class="cls-1" cx="201.68" cy="163.11" r="24.39"/><circle class="cls-4" cx="189.52" cy="155.5" r="6.97"/><circle class="cls-1" cx="311.13" cy="163.11" r="24.39"/><circle class="cls-4" cx="298.97" cy="155.5" r="6.97"/><path class="cls-5" d="M383.55,98.22c-2.47-.64-3.5-2.34-4.22-4.59a94.54,94.54,0,0,0-29.77-44.42,32.24,32.24,0,0,0-3.12-2.31c-1.75-1.12-3.55-1.36-5.27.15-4.9,4.34-9.95,3.63-15.26.86A138,138,0,0,0,273.73,33c-24.67-2.2-48.36,2-71.15,11.53-14.94,6.28-28.06,15.14-40.15,25.53a24.56,24.56,0,0,1-5.19,3.73c-2.4,1.14-4.9.49-7.31-.53-4.07-1.73-5.68-1.25-8.23,2.6a119.45,119.45,0,0,0-14.31,29.43,82,82,0,0,0-4.07,24c0,2-.57,3.55-2.44,4.57a27.62,27.62,0,0,1-.46-4.41,93.43,93.43,0,0,1,8.28-35.22C131.62,88,135,81.87,138.32,75.5l-4.92-2.11c-.46.73-.89,1.43-1.34,2.1a109.29,109.29,0,0,0-16.84,40.3,85.74,85.74,0,0,0-1.47,24.7l-1.89,2-1.13-.33c-.11-3.59-.49-7.18-.28-10.76a109.5,109.5,0,0,1,19.94-58c1.05-1.49,1.1-3.6,1.71-5.38.73-2.13,1.08-4.58,2.44-6.28,10.92-13.52,24.3-24.42,39.51-33.36,13.08-7.69,27.16-13,41.72-17.35,3.38-1,6.8-1.87,10.2-2.8l21.54-2.92c2.68.06,5.36.23,8,.16,33.77-.88,64.83,7.1,92.89,24.79,3.7,2.33,7.72,4.63,7.8,9.85,0,1,1.39,2,2.35,2.86a106.23,106.23,0,0,1,35.05,54.23,36.65,36.65,0,0,1,.78,4,10.67,10.67,0,0,1-.14,2l-2.84-1c-1.77-10.65-5.85-20.48-11.27-29.82a109.13,109.13,0,0,0-24-28.22l-5.33,3.24a84.83,84.83,0,0,1,20.67,22.76A90.17,90.17,0,0,1,383.55,98.22ZM339.92,43.69C308.22,21.3,272.4,15,234,21.43c-34.42,5.74-63.54,21.15-85.26,48.4,5.12,2.58,7.55,2.29,11.52-1.16,8.37-7.25,17-14.2,26.85-19.56C217,32.85,248.58,25.92,282.74,31.59a223.65,223.65,0,0,1,27.13,6.62C315.1,39.77,320,42.4,325,44.57c1.86.81,3.62,1.83,5.54,2.48C334.24,48.29,337.63,47.15,339.92,43.69Zm12.94-6c-.62-.67-1.54-2.26-2.95-3.07C342,30,334.38,25,326,21.35a158.54,158.54,0,0,0-71.53-13,175.82,175.82,0,0,0-67.81,16.4,143.74,143.74,0,0,0-28.39,17.34c-7.74,6.16-15.11,12.7-21.18,20.45-2.55,3.26-2.51,6.36.1,8.22s5.31,1.07,7.94-2.25c1.6-2,3.19-4,4.86-6,15.5-18.21,35.48-30.33,58.16-38.43a149.19,149.19,0,0,1,56.11-8.61c28.73,1.06,55.26,8.08,78,25.37a14.91,14.91,0,0,0,3.6,2.23C349.86,44.63,353.45,42.27,352.86,37.66Z"/><path class="cls-3" d="M113.75,140.49a85.74,85.74,0,0,1,1.47-24.7,109.29,109.29,0,0,1,16.84-40.3c.45-.67.88-1.37,1.34-2.1l4.92,2.11C135,81.87,131.62,88,128.7,94.28a93.43,93.43,0,0,0-8.28,35.22,27.62,27.62,0,0,0,.46,4.41l0-.06-.61.63Z"/><path class="cls-3" d="M383.55,98.22a90.17,90.17,0,0,0-12.06-28.07,84.83,84.83,0,0,0-20.67-22.76l5.33-3.24a109.13,109.13,0,0,1,24,28.22c5.42,9.34,9.5,19.17,11.27,29.82Z"/><path class="cls-6" d="M115.37,132.84l.62-.63Z"/><path class="cls-4" d="M339.92,43.69c-2.29,3.46-5.68,4.6-9.39,3.36-1.92-.65-3.68-1.67-5.54-2.48-5-2.17-9.89-4.8-15.12-6.36a223.65,223.65,0,0,0-27.13-6.62c-34.16-5.67-65.74,1.26-95.63,17.52-9.84,5.36-18.48,12.31-26.85,19.56-4,3.45-6.4,3.74-11.52,1.16,21.72-27.25,50.84-42.66,85.26-48.4C272.4,15,308.22,21.3,339.92,43.69Z"/><path class="cls-3" d="M352.86,37.66c.59,4.61-3,7-7,5.46a14.91,14.91,0,0,1-3.6-2.23C319.56,23.6,293,16.58,264.3,15.52a149.19,149.19,0,0,0-56.11,8.61c-22.68,8.1-42.66,20.22-58.16,38.43-1.67,2-3.26,4-4.86,6-2.63,3.32-5.34,4.09-7.94,2.25s-2.65-5-.1-8.22c6.07-7.75,13.44-14.29,21.18-20.45A143.74,143.74,0,0,1,186.7,24.79a175.82,175.82,0,0,1,67.81-16.4,158.54,158.54,0,0,1,71.53,13C334.38,25,342,30,349.91,34.59,351.32,35.4,352.24,37,352.86,37.66Z"/><path class="cls-5" d="M86.24,149.33a11.76,11.76,0,0,0,1.53-2.41c4.67-14.18,20.38-20,31-17.23,2.51.66,4.59.42,6.42-1.71,6-7,13.74-6.9,20.42-3.43a15.91,15.91,0,0,1,7.71,19.37c-4.26,12.93-8.7,25.8-13,38.7-4,12-8.15,24-12,36.12-3.23,10.07-10.59,12.55-16.84,12.44a16.48,16.48,0,0,1-15.69-14.24c-.37-3-1.56-4.6-4.51-5.81A24.35,24.35,0,0,1,76.09,185a14.72,14.72,0,0,0,0-2.57Zm51.06,31.35.11,0c4.33-12.78,8.78-25.53,12.93-38.37A12.87,12.87,0,0,0,141.57,126c-7.56-2.21-14.47,1.33-17,8.77q-8.37,24.75-16.66,49.52c-3,8.86-6.09,17.68-8.77,26.62s3.65,17,12.82,17.24c6.11.13,10.42-3,12.58-9.42Q131,199.72,137.3,180.68Zm-42,28.42q12.86-37.92,25.82-76.1a24.92,24.92,0,0,0-13.94-.46C98.3,134.71,93,140.29,90.4,148.47c-3.59,11.43-7.28,22.83-10.69,34.31a24.76,24.76,0,0,0-.89,8.48C79.34,199.42,87.08,208.15,95.27,209.1Z"/><path class="cls-4" d="M137.3,180.68q-6.36,19-12.74,38.06c-2.16,6.38-6.47,9.55-12.58,9.42-9.17-.2-15.46-8.41-12.82-17.24s5.8-17.76,8.77-26.62q8.29-24.77,16.66-49.52c2.51-7.44,9.42-11,17-8.77a12.87,12.87,0,0,1,8.77,16.33c-4.15,12.84-8.6,25.59-12.93,38.37Z"/><path class="cls-3" d="M95.27,209.1c-8.19-.95-15.93-9.68-16.45-17.84a24.76,24.76,0,0,1,.89-8.48c3.41-11.48,7.1-22.88,10.69-34.31,2.57-8.18,7.9-13.76,16.75-15.93a24.92,24.92,0,0,1,13.94.46Q108.13,171.21,95.27,209.1Z"/><path class="cls-5" d="M432.06,147a16.83,16.83,0,0,0,.13,2.57,24.17,24.17,0,0,1-13.56,26.91c-2.87,1.36-4,3-4.17,6a16.34,16.34,0,0,1-14.83,15c-6.23.45-13.73-1.64-17.54-11.52-4.58-11.85-9.39-23.62-14.13-35.41-5.09-12.66-10.28-25.27-15.29-38a15.81,15.81,0,0,1,6.56-19.74c6.47-3.82,14.16-4.29,20.59,2.34,2,2,4.05,2.16,6.52,1.37,10.43-3.36,26.47,1.65,32,15.55a11.89,11.89,0,0,0,1.67,2.33Zm-46.29,38.85c2.53,6.25,7,9.19,13.11,8.73,9.16-.68,14.95-9.21,11.79-17.89s-6.82-17.42-10.31-26.1q-9.74-24.28-19.54-48.56c-2.95-7.29-10.06-10.46-17.48-7.85a12.8,12.8,0,0,0-7.8,16.77c4.9,12.6,10.09,25.08,15.16,37.62l.11,0C375.8,161,380.75,173.4,385.77,185.83ZM429.84,156a24.89,24.89,0,0,0-1.39-8.43c-4.08-11.27-8.43-22.46-12.69-33.68-3.05-8-8.69-13.32-17.65-15a24.92,24.92,0,0,0-13.9,1.2l30.25,74.59C422.58,173.27,429.8,164.15,429.84,156Z"/><path class="cls-4" d="M370.81,148.51c5,12.44,9.94,24.89,15,37.32,2.53,6.25,7,9.19,13.11,8.73,9.16-.68,14.95-9.21,11.79-17.89s-6.82-17.42-10.31-26.1q-9.74-24.28-19.54-48.56c-2.95-7.29-10.06-10.46-17.48-7.85a12.8,12.8,0,0,0-7.8,16.77c4.9,12.6,10.09,25.08,15.16,37.62Z"/><path class="cls-3" d="M414.46,174.65c8.12-1.38,15.34-10.5,15.38-18.67a24.89,24.89,0,0,0-1.39-8.43c-4.08-11.27-8.43-22.46-12.69-33.68-3.05-8-8.69-13.32-17.65-15a24.92,24.92,0,0,0-13.9,1.2Z"/></svg>