<svg id="Layer_1" data-name="Layer 1" xmlns="http://www.w3.org/2000/svg" viewBox="0 0 1024 897.5"><defs><style>.cls-1{fill:#526c19;}.cls-2,.cls-7{fill:#dcf048;}.cls-3,.cls-8{fill:#e9876f;}.cls-4{fill:#fff;}.cls-5{fill:#b8553f;}.cls-6{fill:#6f3a3c;}.cls-7{stroke:#526c19;}.cls-7,.cls-8{stroke-miterlimit:10;stroke-width:0.6px;}.cls-8{stroke:#b8553f;}</style></defs><title>Logo_LightMode_Full222</title><path class="cls-1" d="M518,118.42c44.3,2.06,83.63,22.42,113.76,60.39,19.43,24.47,31.87,52.77,38.71,82.86,8.32,36.56,23.3,69.72,42.71,101.47,14,22.87,25.42,47.09,31.45,73.54,14,61.38,3,118.21-31.92,170.16C682,652.51,639.55,683.3,586.76,698c-98.1,27.33-184.15,4.24-252.14-71.25C278,564,267.06,489.53,295.57,409.85c8.05-22.48,19.82-43.31,31.65-64C338,327,346,307.17,350.46,285.82c7.75-37.5,20.9-72.92,44.11-103.76C424.29,142.57,463,119.22,518,118.42Z"/><path class="cls-2" d="M516.92,692.36c-64.71-.71-120.65-23.25-165.83-69.71-40-41.13-58.65-91.29-55.67-148.7,1.88-36.24,14.7-69.4,32.66-100.57s32.31-63.72,39.86-99.44c8.59-40.64,27.22-76.74,57.24-106.27,41.68-41,104.05-45.08,150.1-19.17,38.92,21.9,59.9,55.93,74.56,95.77a280.18,280.18,0,0,1,10.93,38.56c5.08,24,15.52,45.6,28.18,66.36,16.18,26.53,30.91,53.79,38.94,84.11,12.75,48.1,7.86,94.58-14.18,139-31.68,63.86-84.66,100-153,115.71A181,181,0,0,1,516.92,692.36Z"/><path class="cls-1" d="M508.51,330.27c-14.34.14-27.15-7.27-30.59-17-1.15-3.27-2-6.86,2-8.59,4.56-2,5.46,1.8,7.16,4.72,8.57,14.69,34.87,15.48,45.76,1.45,1.25-1.62,1.85-3.65,2.9-5.42a4.94,4.94,0,0,1,6.65-2.19c3.06,1.24,3,3.73,2.21,6.2-2.37,7-7.72,11.84-14.42,15.26C523.14,328.3,515.56,330.49,508.51,330.27Z"/><path class="cls-3" d="M617.7,283.65c4.06.32,7.17,2.92,7.35,8.42.21,6.19-9,15.17-15.48,14.87-5.46-.24-8.1-3.55-8-8.91C601.66,292.26,610.76,283.57,617.7,283.65Z"/><path class="cls-3" d="M404.78,300.92c0,4.42-4.54,7.23-9.1,5.29a24.44,24.44,0,0,1-12.82-12.85c-1.15-2.51-1.37-5.11.43-7.4,2.11-2.68,5.19-2.67,8.09-2C396.35,285.07,404.82,296,404.78,300.92Z"/><circle class="cls-3" cx="518.01" cy="501.87" r="156.13"/><path class="cls-4" d="M551.55,489.42Q542.3,523.85,533,558.28c-1.72,6.39-3.73,12.74-5.23,19.15-.82,3.48-1.84,6.79-7.6,6.49-5-.27-7.43-3.09-8.12-6.64-1.89-9.68-3.6-19.37-5.61-29-5.57-26.89-11.26-53.76-16.9-80.64l-2.88-.17q-6,22.08-11.92,44.15c-1.65,6.07-3.51,12.11-5.06,18.2-1,3.89-3.23,6.94-9,7.2-5.58.24-7.07-3.37-8.85-6.26-5.63-9.14-9-19-17.22-28.78-6.18,9.9-17.15,10.07-28.7,9.74-10.09-.29-20.21.09-30.31.1-4.35,0-8.26-1.09-8.51-4.7-.3-4.35,4.05-5.24,8.9-5.24,9.67,0,19.36-.39,29,0,8.46.36,13.81-1.44,17.64-7.53,2.51-4,3.85-10.25,12.29-10.22,8.94,0,8.51,6.63,11.36,10.65,4.06,5.72,7.24,11.79,11.55,19,5.84-8.71,6.33-17.09,8.56-25,5.12-18.17,9.36-36.48,14.17-54.69,1-3.77,2-8.3,9.11-8.1,6.46.19,7,4.64,7.66,8,4.07,20,7.77,40,11.63,59.95,3.42,17.68,6.88,35.35,12.64,53.07,4.6-18.17,9.1-36.35,13.86-54.49,2.61-9.9,5.54-19.76,8.62-29.58.86-2.74,1.77-6,7-6.14s6.55,3,7.54,5.75c4.72,12.89,9.06,25.85,13.67,38.76,1.79,5,3.93,10,6,15.18,1.06-.75,2.07-1.12,2.23-1.64,4.17-13,15.55-16.13,32.32-14.79,13.89,1.12,28.09,0,42.14.18,6.17.07,15.13-1.63,14.75,5.92s-9.55,5.42-15.4,5.1c-14.9-.81-29.8-.91-44.72-1.14-8-.12-13.3,1.31-15.4,7.73-1.75,5.36-4.76,10.5-7.32,15.71-1.49,3-2.46,6.31-8.53,6.14s-8.19-3.08-9.35-6.84c-2.43-7.93-4.61-15.91-7.39-23.78C559.36,502.52,558.36,495.71,551.55,489.42Z"/><path class="cls-2" d="M576.94,471.54c-3.11-18.53,6.16-30,25.49-33.48A126.21,126.21,0,0,1,621.86,436c5.17-.13,8.37,2.14,7.45,7.67-1.66,10-4,19.72-10.55,28.05-8.07,10.31-28,16.37-38.12,5.78.67-8.68,9.13-10.9,13.06-16-2.7,2.05-5.67,4.84-8.67,7.62C582.83,471.17,580.75,474.54,576.94,471.54Z"/><path class="cls-3" d="M577,471.54c7.4-1,9.87-8.88,16-11.68,1.94-.88,3-3.42,6.58-3.48-4.74,9-14,13.21-18.94,21.13C578,476.4,576.66,474.5,577,471.54Z"/><circle class="cls-1" cx="439.4" cy="251.49" r="32.16"/><circle class="cls-4" cx="423.37" cy="241.45" r="9.19"/><circle class="cls-1" cx="583.69" cy="251.49" r="32.16"/><circle class="cls-4" cx="567.66" cy="241.45" r="9.19"/><path class="cls-5" d="M679.18,165.93c-3.27-.84-4.62-3.08-5.57-6.05a124.5,124.5,0,0,0-39.25-58.55,38.34,38.34,0,0,0-4.11-3c-2.3-1.48-4.68-1.8-6.94.2-6.46,5.72-13.13,4.78-20.13,1.13C581.78,88.43,558.7,82.11,534.39,80c-32.53-2.91-63.75,2.57-93.79,15.2-19.71,8.28-37,20-52.94,33.66a32.11,32.11,0,0,1-6.84,4.91c-3.17,1.51-6.47.65-9.64-.69-5.37-2.29-7.49-1.65-10.85,3.43a156.87,156.87,0,0,0-18.86,38.8A108.06,108.06,0,0,0,336.09,207c0,2.66-.75,4.67-3.22,6a38.42,38.42,0,0,1-.6-5.82c.77-16,4.07-31.64,10.92-46.43,3.85-8.32,8.35-16.36,12.69-24.76l-6.49-2.78c-.62,1-1.17,1.88-1.77,2.77a143.92,143.92,0,0,0-22.2,53.13,113.44,113.44,0,0,0-1.94,32.57L321,224.31l-1.49-.43c-.14-4.73-.65-9.47-.38-14.19,1.58-27.63,10-53.23,26.3-76.46,1.38-2,1.44-4.73,2.25-7.09,1-2.8,1.43-6,3.23-8.27,14.39-17.83,32-32.2,52.08-44C420.22,63.74,438.79,56.69,458,51c4.45-1.32,8.95-2.47,13.43-3.69l28.41-3.84c3.53.07,7.07.3,10.6.2,44.51-1.16,85.46,9.36,122.46,32.68,4.87,3.07,10.17,6.11,10.28,13,0,1.29,1.84,2.71,3.1,3.76q34.53,29,46.21,71.5a51,51,0,0,1,1,5.35,14.5,14.5,0,0,1-.19,2.59l-3.75-1.38c-2.33-14-7.71-27-14.85-39.32-8.22-14.18-19-26.39-31.66-37.2l-7,4.27a112.21,112.21,0,0,1,27.26,30A119.19,119.19,0,0,1,679.18,165.93ZM621.65,94.05c-41.79-29.52-89-37.8-139.63-29.35-45.39,7.57-83.77,27.88-112.41,63.81,6.74,3.39,9.95,3,15.19-1.53,11-9.56,22.42-18.73,35.39-25.79,39.41-21.43,81.05-30.57,126.09-23.1A294,294,0,0,1,582,86.82c6.9,2.06,13.32,5.53,20,8.39,2.44,1.06,4.77,2.41,7.29,3.26C614.17,100.11,618.63,98.6,621.65,94.05Zm17.07-8c-.82-.89-2-3-3.89-4.06-10.38-6-20.48-12.64-31.47-17.45-29.78-13-61.31-18.56-94.31-17.08-31.3,1.4-61.14,8.31-89.39,21.61A189.21,189.21,0,0,0,382.23,92c-10.21,8.13-19.92,16.75-27.93,27-3.36,4.3-3.3,8.38.14,10.83s7,1.41,10.46-3c2.11-2.65,4.21-5.32,6.41-7.9,20.43-24,46.78-40,76.68-50.66A196.94,196.94,0,0,1,522,56.9c37.86,1.41,72.85,10.65,102.82,33.45a19.62,19.62,0,0,0,4.74,2.94C634.77,95.29,639.49,92.17,638.72,86.1Z"/><path class="cls-3" d="M323.48,221.67a113.44,113.44,0,0,1,1.94-32.57A143.92,143.92,0,0,1,347.62,136c.6-.89,1.15-1.8,1.77-2.77l6.49,2.78c-4.34,8.4-8.84,16.44-12.69,24.76-6.85,14.79-10.15,30.38-10.92,46.43a38.42,38.42,0,0,0,.6,5.82l0-.08-.81.83Z"/><path class="cls-3" d="M679.18,165.93a119.19,119.19,0,0,0-15.9-37,112.21,112.21,0,0,0-27.26-30l7-4.27c12.64,10.81,23.44,23,31.66,37.2,7.14,12.32,12.52,25.28,14.85,39.32Z"/><path class="cls-6" d="M325.62,211.58l.81-.83Z"/><path class="cls-4" d="M621.65,94.05c-3,4.55-7.48,6.06-12.38,4.42-2.52-.85-4.85-2.2-7.29-3.26-6.63-2.86-13.05-6.33-20-8.39a294,294,0,0,0-35.75-8.73c-45-7.47-86.68,1.67-126.09,23.1-13,7.06-24.36,16.23-35.39,25.79-5.24,4.54-8.45,4.92-15.19,1.53,28.64-35.93,67-56.24,112.41-63.81C532.65,56.25,579.86,64.53,621.65,94.05Z"/><path class="cls-3" d="M638.72,86.1c.77,6.07-4,9.19-9.19,7.19a19.62,19.62,0,0,1-4.74-2.94c-30-22.8-65-32-102.82-33.45a196.94,196.94,0,0,0-74,11.36c-29.9,10.68-56.25,26.65-76.68,50.66-2.2,2.58-4.3,5.25-6.41,7.9-3.47,4.37-7,5.39-10.46,3s-3.5-6.53-.14-10.83c8-10.22,17.72-18.84,27.93-27a189.21,189.21,0,0,1,37.43-22.86c28.25-13.3,58.09-20.21,89.39-21.61,33-1.48,64.53,4.06,94.31,17.08C614.35,69.4,624.45,76,634.83,82,636.69,83.12,637.9,85.21,638.72,86.1Z"/><path class="cls-5" d="M287.21,233.31a15.47,15.47,0,0,0,2-3.18c6.15-18.69,26.86-26.39,40.86-22.7,3.3.87,6,.54,8.47-2.26,7.94-9.18,18.11-9.1,26.91-4.52a21,21,0,0,1,10.16,25.54c-5.61,17-11.47,34-17.18,51-5.33,15.86-10.75,31.69-15.86,47.62-4.25,13.27-13.95,16.54-22.19,16.39a21.71,21.71,0,0,1-20.68-18.77c-.5-4-2.07-6.07-6-7.66a32.08,32.08,0,0,1-19.94-34.48,20.34,20.34,0,0,0,0-3.4Q280.52,255.11,287.21,233.31Zm67.32,41.34.15,0c5.7-16.85,11.57-33.66,17-50.58a17,17,0,0,0-11.56-21.54c-10-2.92-19.08,1.75-22.39,11.56q-11,32.64-22,65.29c-3.91,11.68-8,23.31-11.55,35.09s4.8,22.47,16.9,22.73c8.05.18,13.74-4,16.58-12.41Q346.19,299.75,354.53,274.65Zm-55.42,37.46q17-50,34-100.32a32.85,32.85,0,0,0-18.38-.61c-11.66,2.86-18.68,10.21-22.07,21-4.73,15.07-9.6,30.1-14.1,45.23a32.74,32.74,0,0,0-1.17,11.19C278.11,299.35,288.32,310.87,299.11,312.11Z"/><path class="cls-4" d="M354.53,274.65q-8.38,25.08-16.8,50.18c-2.84,8.4-8.53,12.59-16.58,12.41-12.1-.26-20.39-11.08-16.9-22.73s7.64-23.41,11.55-35.09q10.95-32.66,22-65.29c3.31-9.81,12.43-14.48,22.39-11.56a17,17,0,0,1,11.56,21.54c-5.47,16.92-11.34,33.73-17,50.58Z"/><path class="cls-3" d="M299.11,312.11c-10.79-1.24-21-12.76-21.68-23.51a32.74,32.74,0,0,1,1.17-11.19c4.5-15.13,9.37-30.16,14.1-45.23,3.39-10.79,10.41-18.14,22.07-21a32.85,32.85,0,0,1,18.38.61Q316.07,262.15,299.11,312.11Z"/><path class="cls-5" d="M743.13,230.22a21.22,21.22,0,0,0,.18,3.39,31.89,31.89,0,0,1-17.89,35.48c-3.78,1.79-5.23,3.94-5.49,8a21.57,21.57,0,0,1-19.55,19.83c-8.22.59-18.1-2.16-23.13-15.19-6-15.63-12.38-31.14-18.63-46.69-6.71-16.68-13.55-33.31-20.16-50a20.86,20.86,0,0,1,8.66-26c8.52-5,18.66-5.66,27.14,3.09,2.58,2.66,5.34,2.84,8.59,1.8,13.76-4.43,34.9,2.17,42.14,20.5a15.5,15.5,0,0,0,2.2,3.07Q735.17,208.82,743.13,230.22Zm-61,51.21c3.32,8.24,9.25,12.12,17.28,11.52,12.07-.91,19.71-12.15,15.55-23.59s-9-23-13.6-34.41q-12.84-32-25.76-64c-3.89-9.62-13.27-13.8-23.05-10.35a16.86,16.86,0,0,0-10.28,22.1c6.46,16.61,13.3,33.07,20,49.59l.14-.05Q672.24,256.83,682.11,281.43Zm58.09-39.35A32.81,32.81,0,0,0,738.38,231c-5.39-14.86-11.13-29.61-16.74-44.4-4-10.59-11.46-17.56-23.28-19.8a32.85,32.85,0,0,0-18.31,1.58q20,49.36,39.88,98.35C730.64,264.88,740.15,252.85,740.2,242.08Z"/><path class="cls-4" d="M662.38,232.23q9.86,24.6,19.73,49.2c3.32,8.24,9.25,12.12,17.28,11.52,12.07-.91,19.71-12.15,15.55-23.59s-9-23-13.6-34.41q-12.84-32-25.76-64c-3.89-9.62-13.27-13.8-23.05-10.35a16.86,16.86,0,0,0-10.28,22.1c6.46,16.61,13.3,33.07,20,49.59Z"/><path class="cls-3" d="M719.93,266.7c10.71-1.82,20.22-13.85,20.27-24.62A32.81,32.81,0,0,0,738.38,231c-5.39-14.86-11.13-29.61-16.74-44.4-4-10.59-11.46-17.56-23.28-19.8a32.85,32.85,0,0,0-18.31,1.58Q700.06,217.71,719.93,266.7Z"/><path d="M304.36,880H302.8l-14.24-21.71V880H287V855.75h1.55l14.24,21.64V855.75h1.56Z"/><path d="M313.58,879.08a8.37,8.37,0,0,1-3.3-3.37,10.62,10.62,0,0,1-1.19-5.13,10.34,10.34,0,0,1,1.21-5.1,8.29,8.29,0,0,1,3.34-3.35,9.77,9.77,0,0,1,4.75-1.16,9.66,9.66,0,0,1,4.73,1.16,8.14,8.14,0,0,1,3.3,3.33,11.5,11.5,0,0,1,0,10.25,8.4,8.4,0,0,1-3.34,3.37,10.13,10.13,0,0,1-9.49,0Zm8.56-1.12a6.87,6.87,0,0,0,2.85-2.78,9.18,9.18,0,0,0,1.07-4.6A9,9,0,0,0,325,866a6.9,6.9,0,0,0-2.83-2.79,8.17,8.17,0,0,0-3.81-.91,8,8,0,0,0-3.78.91,7,7,0,0,0-2.82,2.79,9,9,0,0,0-1.07,4.56,9.18,9.18,0,0,0,1.06,4.6,6.81,6.81,0,0,0,2.8,2.78,8,8,0,0,0,3.78.91A8.24,8.24,0,0,0,322.14,878Z"/><path d="M348.21,861.21V880h-1.55V875.9a6.24,6.24,0,0,1-2.64,3.27,8,8,0,0,1-4.24,1.12,7.53,7.53,0,0,1-5.48-2.06q-2.12-2.06-2.12-6.1V861.21h1.52V872a7.13,7.13,0,0,0,1.69,5.13,6,6,0,0,0,4.6,1.78,6.34,6.34,0,0,0,4.86-1.93,8.16,8.16,0,0,0,1.81-5.74V861.21Z"/><path d="M357.89,861.92a8.49,8.49,0,0,1,4.5-1.09v1.63h-.52a6.79,6.79,0,0,0-4.6,1.57q-1.83,1.58-1.83,5.13V880h-1.56V861.21h1.56v3.87A5.73,5.73,0,0,1,357.89,861.92Z"/><path d="M365.84,856.67a1.31,1.31,0,0,1-.38-1,1.34,1.34,0,0,1,.38-1,1.28,1.28,0,0,1,.93-.38,1.31,1.31,0,0,1,.94.38,1.34,1.34,0,0,1,.38,1,1.31,1.31,0,0,1-.38,1,1.33,1.33,0,0,1-.94.36A1.31,1.31,0,0,1,365.84,856.67Zm1.69,4.54V880H366V861.21Z"/><path d="M374.36,878.87a5.15,5.15,0,0,1-2.23-3.94h1.59a3.86,3.86,0,0,0,1.68,2.91,6.94,6.94,0,0,0,4.09,1.07,5.07,5.07,0,0,0,3.41-1.09,3.41,3.41,0,0,0,1.26-2.68,2.51,2.51,0,0,0-.68-1.81,4.22,4.22,0,0,0-1.67-1.09,26.39,26.39,0,0,0-2.73-.83,26.5,26.5,0,0,1-3.35-1.09,5.6,5.6,0,0,1-2.18-1.61,4.31,4.31,0,0,1-.9-2.87,4.12,4.12,0,0,1,.79-2.43,5.44,5.44,0,0,1,2.22-1.78,7.49,7.49,0,0,1,3.21-.66,7.31,7.31,0,0,1,4.75,1.47,5.35,5.35,0,0,1,2,4.06H384a4.17,4.17,0,0,0-1.45-3,5.51,5.51,0,0,0-3.73-1.18,5.19,5.19,0,0,0-3.32,1,3.09,3.09,0,0,0-1.31,2.52A3,3,0,0,0,375,868a4.72,4.72,0,0,0,1.83,1.24,26.58,26.58,0,0,0,2.89.92,24.7,24.7,0,0,1,3.16,1,5.44,5.44,0,0,1,2,1.45,3.73,3.73,0,0,1,.83,2.54,4.61,4.61,0,0,1-.8,2.63,5.28,5.28,0,0,1-2.21,1.83,7.41,7.41,0,0,1-3.18.66A8.83,8.83,0,0,1,374.36,878.87Z"/><path d="M404.34,862.89q2.12,2.05,2.11,6.1v11h-1.52V869.09a7.16,7.16,0,0,0-1.69-5.13,6,6,0,0,0-4.6-1.78,6.35,6.35,0,0,0-4.86,1.94q-1.81,1.93-1.81,5.73V880h-1.56V854.4H392v10.79a6.17,6.17,0,0,1,2.66-3.23,8.15,8.15,0,0,1,4.29-1.13A7.43,7.43,0,0,1,404.34,862.89Z"/><path d="M436.35,861.21l-10.93,27.58h-1.59l3.5-8.81-7.88-18.77h1.69l7.05,17,6.57-17Z"/><path d="M443.33,879.08a8.24,8.24,0,0,1-3.3-3.37,11.46,11.46,0,0,1,0-10.23,8.29,8.29,0,0,1,3.34-3.35,10.28,10.28,0,0,1,9.49,0,8.27,8.27,0,0,1,3.3,3.33,10.58,10.58,0,0,1,1.19,5.12,10.4,10.4,0,0,1-1.21,5.13,8.44,8.44,0,0,1-3.33,3.37,9.74,9.74,0,0,1-4.76,1.18A9.57,9.57,0,0,1,443.33,879.08Zm8.55-1.12a6.87,6.87,0,0,0,2.85-2.78,9.08,9.08,0,0,0,1.07-4.6,9,9,0,0,0-1.07-4.56,6.9,6.9,0,0,0-2.83-2.79,8.37,8.37,0,0,0-7.59,0A6.92,6.92,0,0,0,441.5,866a9,9,0,0,0-1.08,4.56,9.29,9.29,0,0,0,1.06,4.6,6.87,6.87,0,0,0,2.8,2.78,8,8,0,0,0,3.78.91A8.21,8.21,0,0,0,451.88,878Z"/><path d="M478,861.21V880H476.4V875.9a6.24,6.24,0,0,1-2.64,3.27,8,8,0,0,1-4.23,1.12,7.5,7.5,0,0,1-5.48-2.06q-2.13-2.06-2.13-6.1V861.21h1.52V872a7.14,7.14,0,0,0,1.7,5.13,6,6,0,0,0,4.59,1.78,6.34,6.34,0,0,0,4.86-1.93c1.21-1.29,1.81-3.21,1.81-5.74V861.21Z"/><path d="M487.63,861.92a8.52,8.52,0,0,1,4.5-1.09v1.63h-.52A6.81,6.81,0,0,0,487,864q-1.83,1.58-1.83,5.13V880h-1.55V861.21h1.55v3.87A5.73,5.73,0,0,1,487.63,861.92Z"/><path d="M519.4,862.89c1.4,1.37,2.11,3.4,2.11,6.1v11H520V869.09a7.16,7.16,0,0,0-1.69-5.13,6,6,0,0,0-4.6-1.78,6.34,6.34,0,0,0-4.85,1.94,8.09,8.09,0,0,0-1.82,5.73V880h-1.55V854.4H507v10.79a6.15,6.15,0,0,1,2.67-3.23,8.12,8.12,0,0,1,4.28-1.13A7.47,7.47,0,0,1,519.4,862.89Z"/><path d="M543.83,871.2H527.62a8.65,8.65,0,0,0,1.11,4.25,6.66,6.66,0,0,0,2.73,2.59,8,8,0,0,0,3.7.87,7.65,7.65,0,0,0,4.63-1.37,5.92,5.92,0,0,0,2.35-3.71h1.62a7.53,7.53,0,0,1-2.83,4.65,9.15,9.15,0,0,1-5.77,1.78,9.4,9.4,0,0,1-4.7-1.18,8.19,8.19,0,0,1-3.25-3.37,10.62,10.62,0,0,1-1.18-5.13,10.8,10.8,0,0,1,1.16-5.12,8,8,0,0,1,3.23-3.33,9.56,9.56,0,0,1,4.74-1.16,9.18,9.18,0,0,1,4.68,1.16,7.88,7.88,0,0,1,3,3.07,8.47,8.47,0,0,1,1,4.13A17.29,17.29,0,0,1,543.83,871.2Zm-2.37-5.49a6.26,6.26,0,0,0-2.67-2.58,8.15,8.15,0,0,0-3.67-.85,8,8,0,0,0-3.64.85,6.69,6.69,0,0,0-2.73,2.58,8.35,8.35,0,0,0-1.13,4.21h14.73A7.66,7.66,0,0,0,541.46,865.71Z"/><path d="M548.79,865.5a8.13,8.13,0,0,1,3.22-3.35,9.19,9.19,0,0,1,4.68-1.18,8.59,8.59,0,0,1,5,1.45,7.76,7.76,0,0,1,2.9,3.7v-4.91h1.55V880h-1.55V875a7.82,7.82,0,0,1-2.92,3.75,8.53,8.53,0,0,1-5,1.47,9.11,9.11,0,0,1-4.68-1.2,8.21,8.21,0,0,1-3.22-3.38,10.84,10.84,0,0,1-1.16-5.1A10.67,10.67,0,0,1,548.79,865.5Zm14.83.74a7.33,7.33,0,0,0-2.78-2.9,7.74,7.74,0,0,0-3.94-1,8,8,0,0,0-4,1,6.88,6.88,0,0,0-2.7,2.85,10.58,10.58,0,0,0,0,8.85,6.9,6.9,0,0,0,2.71,2.87,7.89,7.89,0,0,0,4,1,7.78,7.78,0,0,0,4-1,7.09,7.09,0,0,0,2.79-2.9,9.24,9.24,0,0,0,1-4.37A9,9,0,0,0,563.62,866.24Z"/><path d="M573.42,854.4V880h-1.56V854.4Z"/><path d="M581.43,862.56V875a4.07,4.07,0,0,0,.77,2.85,3.68,3.68,0,0,0,2.69.78H587V880h-2.35a4.92,4.92,0,0,1-3.61-1.16,5.31,5.31,0,0,1-1.16-3.85V862.56h-2.83v-1.35h2.83v-4.77h1.55v4.77H587v1.35Z"/><path d="M605,862.89q2.12,2.05,2.11,6.1v11h-1.52V869.09a7.17,7.17,0,0,0-1.7-5.13,6,6,0,0,0-4.59-1.78,6.35,6.35,0,0,0-4.86,1.94q-1.82,1.93-1.81,5.73V880h-1.56V854.4h1.56v10.79a6.13,6.13,0,0,1,2.66-3.23,8.12,8.12,0,0,1,4.28-1.13A7.46,7.46,0,0,1,605,862.89Z"/><path d="M626.4,861.92a8.46,8.46,0,0,1,4.49-1.09v1.63h-.52a6.78,6.78,0,0,0-4.59,1.57q-1.85,1.58-1.84,5.13V880h-1.55V861.21h1.55v3.87A5.71,5.71,0,0,1,626.4,861.92Z"/><path d="M648.41,862.89q2.12,2.05,2.11,6.1v11H649V869.09a7.16,7.16,0,0,0-1.69-5.13,6,6,0,0,0-4.6-1.78,6.31,6.31,0,0,0-4.85,1.94,8.09,8.09,0,0,0-1.82,5.73V880h-1.55V854.4H636v10.79A6.17,6.17,0,0,1,638.7,862a8.18,8.18,0,0,1,4.29-1.13A7.43,7.43,0,0,1,648.41,862.89Z"/><path d="M670.67,861.21l-10.92,27.58h-1.59l3.49-8.81-7.88-18.77h1.69l7,17,6.57-17Z"/><path d="M676.44,862.56V875a4.12,4.12,0,0,0,.76,2.85,3.72,3.72,0,0,0,2.7.78H682V880h-2.35a5,5,0,0,1-3.62-1.16,5.31,5.31,0,0,1-1.15-3.85V862.56h-2.84v-1.35h2.84v-4.77h1.55v4.77H682v1.35Z"/><path d="M700.05,862.89c1.4,1.37,2.11,3.4,2.11,6.1v11h-1.53V869.09a7.16,7.16,0,0,0-1.69-5.13,6,6,0,0,0-4.6-1.78,6.34,6.34,0,0,0-4.85,1.94,8.09,8.09,0,0,0-1.82,5.73V880h-1.55V854.4h1.55v10.79a6.15,6.15,0,0,1,2.67-3.23,8.12,8.12,0,0,1,4.28-1.13A7.47,7.47,0,0,1,700.05,862.89Z"/><path d="M735.09,862.89q2,2.05,2,6.1v11h-1.52V869.09A7.37,7.37,0,0,0,734,864a5.62,5.62,0,0,0-4.4-1.78,5.94,5.94,0,0,0-4.67,2,8.58,8.58,0,0,0-1.76,5.81v10h-1.52V869.09A7.42,7.42,0,0,0,720,864a5.63,5.63,0,0,0-4.41-1.78,5.91,5.91,0,0,0-4.66,2,8.53,8.53,0,0,0-1.76,5.81v10h-1.56V861.21h1.56v4.08a6.27,6.27,0,0,1,2.57-3.33,7.51,7.51,0,0,1,4.1-1.13,7.38,7.38,0,0,1,4.4,1.33,6.77,6.77,0,0,1,2.54,3.93,6.56,6.56,0,0,1,2.56-3.93,7.63,7.63,0,0,1,4.46-1.33A7.08,7.08,0,0,1,735.09,862.89Z"/><path class="cls-7" d="M331.1,820H304.78l-4.22,12.46h-18l25.52-70.51H328l25.51,70.51H335.32Zm-4.42-13.25-8.74-25.82-8.64,25.82Z"/><path class="cls-7" d="M390.46,816.36l12.16-40H420.9l-19.89,56H379.82l-19.89-56h18.38Z"/><path class="cls-7" d="M442.84,829.72a25.77,25.77,0,0,1-10.34-10.05,32.5,32.5,0,0,1,.05-30.48A25.91,25.91,0,0,1,443,779.09a33.23,33.23,0,0,1,29.73,0,25.88,25.88,0,0,1,10.44,10.1A29.71,29.71,0,0,1,487,804.41a29.41,29.41,0,0,1-3.87,15.21,26.19,26.19,0,0,1-10.54,10.1,31.61,31.61,0,0,1-14.92,3.51A31,31,0,0,1,442.84,829.72Zm23.21-15q3.46-3.62,3.46-10.34t-3.36-10.35a11.41,11.41,0,0,0-16.63,0q-3.31,3.57-3.31,10.4t3.26,10.34a10.59,10.59,0,0,0,8.19,3.62A11.2,11.2,0,0,0,466.05,814.75Z"/><path class="cls-8" d="M566.34,761.92l-25,70.51H519.84l-25-70.51h18.28l17.47,53.23,17.58-53.23Z"/><path class="cls-8" d="M578.75,767.89a8.61,8.61,0,0,1-2.87-6.58,8.76,8.76,0,0,1,2.87-6.68,10.41,10.41,0,0,1,7.38-2.66,10.3,10.3,0,0,1,7.28,2.66,8.75,8.75,0,0,1,2.86,6.68,8.6,8.6,0,0,1-2.86,6.58,10.26,10.26,0,0,1-7.28,2.67A10.38,10.38,0,0,1,578.75,767.89Zm15.92,8.49v56H577.49v-56Z"/><path class="cls-8" d="M635.25,778a21.59,21.59,0,0,1,10.34-2.41,23.25,23.25,0,0,1,12.56,3.51,24.45,24.45,0,0,1,8.89,10,37,37,0,0,1,0,30.38,24.68,24.68,0,0,1-8.89,10.15,23,23,0,0,1-12.56,3.56,21.53,21.53,0,0,1-10.34-2.36,18.21,18.21,0,0,1-6.94-6.28v7.84H611.14V758.1h17.17v26.22A17.72,17.72,0,0,1,635.25,778Zm14,16.22a11.81,11.81,0,0,0-8.79-3.67,11.58,11.58,0,0,0-8.69,3.72q-3.57,3.72-3.57,10.15t3.57,10.14a12,12,0,0,0,17.43,0q3.62-3.76,3.61-10.2T649.26,794.21Z"/><path class="cls-8" d="M735.89,808.52H697q.4,5.24,3.36,8a10.31,10.31,0,0,0,7.29,2.76q6.42,0,8.93-5.42h18.29a25,25,0,0,1-5.08,9.94,25.3,25.3,0,0,1-9.19,6.93,29.41,29.41,0,0,1-12.35,2.51,30.14,30.14,0,0,1-14.67-3.51,25,25,0,0,1-10-10.05,31,31,0,0,1-3.62-15.26,31.32,31.32,0,0,1,3.57-15.27,24.73,24.73,0,0,1,10-10,32.6,32.6,0,0,1,29.23-.1,24.58,24.58,0,0,1,9.9,9.75,29.64,29.64,0,0,1,3.56,14.76A44,44,0,0,1,735.89,808.52ZM718.61,799a8.83,8.83,0,0,0-3-7,11.1,11.1,0,0,0-7.53-2.61,10.88,10.88,0,0,0-7.28,2.51,11.13,11.13,0,0,0-3.67,7.13Z"/></svg>