<svg id="Layer_1" data-name="Layer 1" xmlns="http://www.w3.org/2000/svg" viewBox="0 0 500 176.03"><defs><style>.cls-1{fill:#dcf048;stroke:#526c19;}.cls-1,.cls-2{stroke-miterlimit:10;stroke-width:0.6px;}.cls-2{fill:#e9876f;stroke:#b8553f;}</style></defs><title>Logo_LightMode_Name&amp;amp;Tag_NoFont</title><path d="M43.86,153.52H42.3L28.06,131.81v21.71H26.51V129.29h1.55L42.3,150.92V129.29h1.56Z"/><path d="M53.08,152.62a8.43,8.43,0,0,1-3.3-3.37,10.68,10.68,0,0,1-1.19-5.13A10.34,10.34,0,0,1,49.8,139a8.31,8.31,0,0,1,3.34-3.36,9.76,9.76,0,0,1,4.75-1.15,9.66,9.66,0,0,1,4.73,1.15,8.23,8.23,0,0,1,3.3,3.34,10.44,10.44,0,0,1,1.2,5.12,10.57,10.57,0,0,1-1.21,5.13,8.46,8.46,0,0,1-3.34,3.37,10.21,10.21,0,0,1-9.49,0Zm8.56-1.13a6.81,6.81,0,0,0,2.85-2.78,10.34,10.34,0,0,0,0-9.16,6.94,6.94,0,0,0-2.83-2.78,8.18,8.18,0,0,0-3.81-.92,8,8,0,0,0-3.78.92,7,7,0,0,0-2.82,2.78,10.38,10.38,0,0,0,0,9.16,6.75,6.75,0,0,0,2.8,2.78,8,8,0,0,0,3.78.92A8.25,8.25,0,0,0,61.64,151.49Z"/><path d="M87.71,134.75v18.77H86.16v-4.08a6.18,6.18,0,0,1-2.64,3.26,8,8,0,0,1-4.24,1.13,7.57,7.57,0,0,1-5.48-2.06q-2.11-2.06-2.12-6.1V134.75H73.2v10.82a7.16,7.16,0,0,0,1.69,5.13,6,6,0,0,0,4.6,1.78,6.35,6.35,0,0,0,4.86-1.94,8.14,8.14,0,0,0,1.81-5.73V134.75Z"/><path d="M97.39,135.46a8.4,8.4,0,0,1,4.5-1.09V136h-.52a6.8,6.8,0,0,0-4.6,1.58c-1.22,1-1.83,2.76-1.83,5.13v10.82H93.38V134.75h1.56v3.87A5.7,5.7,0,0,1,97.39,135.46Z"/><path d="M105.34,130.2a1.3,1.3,0,0,1-.38-1,1.33,1.33,0,0,1,.38-1,1.28,1.28,0,0,1,.93-.38,1.31,1.31,0,0,1,.94.38,1.33,1.33,0,0,1,.38,1,1.28,1.28,0,0,1-1.32,1.35A1.27,1.27,0,0,1,105.34,130.2Zm1.69,4.55v18.77h-1.55V134.75Z"/><path d="M113.86,152.41a5.16,5.16,0,0,1-2.23-3.94h1.59a3.84,3.84,0,0,0,1.68,2.9,6.87,6.87,0,0,0,4.09,1.07,5.07,5.07,0,0,0,3.41-1.08,3.41,3.41,0,0,0,1.26-2.68,2.53,2.53,0,0,0-.68-1.82,4.45,4.45,0,0,0-1.67-1.09c-.67-.25-1.58-.53-2.73-.83a26.69,26.69,0,0,1-3.35-1.08,5.7,5.7,0,0,1-2.18-1.61,4.33,4.33,0,0,1-.9-2.87,4.13,4.13,0,0,1,.79-2.44,5.44,5.44,0,0,1,2.22-1.78,7.64,7.64,0,0,1,3.21-.65,7.31,7.31,0,0,1,4.75,1.47,5.35,5.35,0,0,1,2,4.06h-1.56a4.15,4.15,0,0,0-1.45-3,5.46,5.46,0,0,0-3.73-1.18,5.19,5.19,0,0,0-3.32,1,3.1,3.1,0,0,0-1.32,2.52,3,3,0,0,0,.75,2.13,4.83,4.83,0,0,0,1.83,1.24,26.86,26.86,0,0,0,2.89.91,24.52,24.52,0,0,1,3.16,1,5.33,5.33,0,0,1,2,1.45,3.73,3.73,0,0,1,.83,2.54,4.58,4.58,0,0,1-.8,2.62,5.22,5.22,0,0,1-2.21,1.84,7.56,7.56,0,0,1-3.18.65A8.83,8.83,0,0,1,113.86,152.41Z"/><path d="M143.84,136.42c1.41,1.38,2.11,3.41,2.11,6.11v11h-1.52V142.63a7.18,7.18,0,0,0-1.69-5.13,6,6,0,0,0-4.6-1.78,6.34,6.34,0,0,0-4.86,1.93q-1.82,1.93-1.81,5.74v10.13h-1.56V127.94h1.56v10.78a6.25,6.25,0,0,1,2.66-3.23,8.12,8.12,0,0,1,4.29-1.12A7.42,7.42,0,0,1,143.84,136.42Z"/><path d="M175.85,134.75l-10.93,27.58h-1.59l3.5-8.81L159,134.75h1.69l7.05,17,6.57-17Z"/><path d="M182.83,152.62a8.3,8.3,0,0,1-3.3-3.37,10.57,10.57,0,0,1-1.2-5.13,10.45,10.45,0,0,1,1.21-5.1,8.31,8.31,0,0,1,3.34-3.36,10.36,10.36,0,0,1,9.49,0,8.35,8.35,0,0,1,3.3,3.34,11.54,11.54,0,0,1,0,10.25,8.46,8.46,0,0,1-3.34,3.37,9.66,9.66,0,0,1-4.75,1.17A9.56,9.56,0,0,1,182.83,152.62Zm8.55-1.13a6.81,6.81,0,0,0,2.85-2.78,10.34,10.34,0,0,0,0-9.16,6.94,6.94,0,0,0-2.83-2.78,8.29,8.29,0,0,0-7.59,0,7,7,0,0,0-2.81,2.78,9,9,0,0,0-1.08,4.57,9.22,9.22,0,0,0,1.06,4.59,6.75,6.75,0,0,0,2.8,2.78,8,8,0,0,0,3.78.92A8.25,8.25,0,0,0,191.38,151.49Z"/><path d="M217.46,134.75v18.77H215.9v-4.08a6.18,6.18,0,0,1-2.64,3.26,8,8,0,0,1-4.24,1.13,7.53,7.53,0,0,1-5.47-2.06q-2.13-2.06-2.13-6.1V134.75h1.52v10.82a7.17,7.17,0,0,0,1.7,5.13,6,6,0,0,0,4.59,1.78,6.35,6.35,0,0,0,4.86-1.94q1.82-1.93,1.81-5.73V134.75Z"/><path d="M227.13,135.46a8.43,8.43,0,0,1,4.5-1.09V136h-.52a6.82,6.82,0,0,0-4.6,1.58c-1.22,1-1.83,2.76-1.83,5.13v10.82h-1.55V134.75h1.55v3.87A5.7,5.7,0,0,1,227.13,135.46Z"/><path d="M258.9,136.42c1.4,1.38,2.11,3.41,2.11,6.11v11h-1.53V142.63a7.13,7.13,0,0,0-1.69-5.13,6,6,0,0,0-4.6-1.78,6.33,6.33,0,0,0-4.85,1.93,8.1,8.1,0,0,0-1.82,5.74v10.13H245V127.94h1.55v10.78a6.22,6.22,0,0,1,2.67-3.23,8.11,8.11,0,0,1,4.28-1.12A7.46,7.46,0,0,1,258.9,136.42Z"/><path d="M283.33,144.74H267.12a8.65,8.65,0,0,0,1.11,4.25,6.72,6.72,0,0,0,2.73,2.59,8,8,0,0,0,3.7.86,7.65,7.65,0,0,0,4.63-1.36,5.92,5.92,0,0,0,2.35-3.72h1.62a7.48,7.48,0,0,1-2.83,4.65,9.09,9.09,0,0,1-5.77,1.78,9.39,9.39,0,0,1-4.7-1.17,8.25,8.25,0,0,1-3.25-3.37,11.81,11.81,0,0,1,0-10.25,8.13,8.13,0,0,1,3.23-3.34,9.56,9.56,0,0,1,4.74-1.15,9.17,9.17,0,0,1,4.68,1.15,7.9,7.9,0,0,1,3,3.08,8.47,8.47,0,0,1,1,4.13A17.41,17.41,0,0,1,283.33,144.74Zm-2.37-5.5a6.24,6.24,0,0,0-2.67-2.57,8,8,0,0,0-3.67-.85,7.87,7.87,0,0,0-3.64.85,6.66,6.66,0,0,0-2.73,2.57,8.39,8.39,0,0,0-1.13,4.22h14.73A7.69,7.69,0,0,0,281,139.24Z"/><path d="M288.29,139a8.13,8.13,0,0,1,3.22-3.35,9.29,9.29,0,0,1,4.68-1.17,8.59,8.59,0,0,1,5.05,1.45,7.76,7.76,0,0,1,2.9,3.7v-4.91h1.55v18.77h-1.55v-5a7.82,7.82,0,0,1-2.92,3.75,8.53,8.53,0,0,1-5,1.47,9.2,9.2,0,0,1-4.68-1.19,8.23,8.23,0,0,1-3.22-3.39,11.75,11.75,0,0,1,0-10.18Zm14.83.75a7.29,7.29,0,0,0-2.78-2.91,7.74,7.74,0,0,0-3.94-1,7.92,7.92,0,0,0-4,1,6.88,6.88,0,0,0-2.7,2.85,10.58,10.58,0,0,0,0,8.85,7,7,0,0,0,2.71,2.87,7.89,7.89,0,0,0,4,1,7.78,7.78,0,0,0,4-1,7.15,7.15,0,0,0,2.79-2.9,9.3,9.3,0,0,0,1-4.37A9,9,0,0,0,303.12,139.78Z"/><path d="M312.92,127.94v25.58h-1.56V127.94Z"/><path d="M320.93,136.1v12.4a4.08,4.08,0,0,0,.77,2.86,3.73,3.73,0,0,0,2.69.77h2.11v1.39h-2.35a4.92,4.92,0,0,1-3.61-1.16,5.33,5.33,0,0,1-1.16-3.86V136.1h-2.83v-1.35h2.83V130h1.55v4.77h5.57v1.35Z"/><path d="M344.54,136.42c1.41,1.38,2.11,3.41,2.11,6.11v11h-1.52V142.63a7.14,7.14,0,0,0-1.7-5.13,6,6,0,0,0-4.59-1.78,6.34,6.34,0,0,0-4.86,1.93q-1.82,1.93-1.81,5.74v10.13h-1.56V127.94h1.56v10.78a6.2,6.2,0,0,1,2.66-3.23,8.11,8.11,0,0,1,4.28-1.12A7.45,7.45,0,0,1,344.54,136.42Z"/><path d="M365.9,135.46a8.37,8.37,0,0,1,4.49-1.09V136h-.52a6.79,6.79,0,0,0-4.59,1.58c-1.23,1-1.84,2.76-1.84,5.13v10.82h-1.55V134.75h1.55v3.87A5.67,5.67,0,0,1,365.9,135.46Z"/><path d="M387.91,136.42c1.41,1.38,2.11,3.41,2.11,6.11v11H388.5V142.63a7.13,7.13,0,0,0-1.69-5.13,6,6,0,0,0-4.6-1.78,6.31,6.31,0,0,0-4.85,1.93,8.1,8.1,0,0,0-1.82,5.74v10.13H374V127.94h1.55v10.78a6.25,6.25,0,0,1,2.66-3.23,8.17,8.17,0,0,1,4.29-1.12A7.42,7.42,0,0,1,387.91,136.42Z"/><path d="M410.17,134.75l-10.92,27.58h-1.59l3.49-8.81-7.88-18.77H395l7.05,17,6.57-17Z"/><path d="M415.94,136.1v12.4a4.14,4.14,0,0,0,.76,2.86,3.77,3.77,0,0,0,2.7.77h2.11v1.39h-2.35a5,5,0,0,1-3.62-1.16,5.33,5.33,0,0,1-1.15-3.86V136.1h-2.84v-1.35h2.84V130h1.55v4.77h5.57v1.35Z"/><path d="M439.55,136.42c1.4,1.38,2.11,3.41,2.11,6.11v11h-1.53V142.63a7.13,7.13,0,0,0-1.69-5.13,6,6,0,0,0-4.6-1.78,6.33,6.33,0,0,0-4.85,1.93,8.1,8.1,0,0,0-1.82,5.74v10.13h-1.55V127.94h1.55v10.78a6.22,6.22,0,0,1,2.67-3.23,8.11,8.11,0,0,1,4.28-1.12A7.46,7.46,0,0,1,439.55,136.42Z"/><path d="M474.59,136.42c1.36,1.38,2,3.41,2,6.11v11h-1.52V142.63a7.34,7.34,0,0,0-1.61-5.13,5.62,5.62,0,0,0-4.4-1.78,5.9,5.9,0,0,0-4.67,2,8.57,8.57,0,0,0-1.76,5.81v10h-1.52V142.63a7.39,7.39,0,0,0-1.61-5.13,5.63,5.63,0,0,0-4.41-1.78,5.88,5.88,0,0,0-4.66,2,8.52,8.52,0,0,0-1.76,5.81v10h-1.56V134.75h1.56v4.08a6.29,6.29,0,0,1,2.57-3.34,7.51,7.51,0,0,1,4.1-1.12,7.31,7.31,0,0,1,4.4,1.33,6.74,6.74,0,0,1,2.54,3.92,6.54,6.54,0,0,1,2.56-3.92,7.56,7.56,0,0,1,4.46-1.33A7.07,7.07,0,0,1,474.59,136.42Z"/><path class="cls-1" d="M70.6,93.51H44.28L40.06,106h-18L47.6,35.45H67.49L93,106H74.82ZM66.18,80.25,57.44,54.44,48.8,80.25Z"/><path class="cls-1" d="M130,89.89l12.16-40H160.4L140.51,106h-21.2l-19.88-56h18.38Z"/><path class="cls-1" d="M182.34,103.25a25.74,25.74,0,0,1-10.34-10,30,30,0,0,1-3.77-15.27,29.74,29.74,0,0,1,3.82-15.22,25.86,25.86,0,0,1,10.44-10.09,33.17,33.17,0,0,1,29.74,0,25.86,25.86,0,0,1,10.44,10.09,29.74,29.74,0,0,1,3.82,15.22,29.47,29.47,0,0,1-3.87,15.22,26.1,26.1,0,0,1-10.54,10.09,31.5,31.5,0,0,1-14.92,3.52A30.9,30.9,0,0,1,182.34,103.25Zm23.21-15Q209,84.67,209,77.94T205.65,67.6a11.41,11.41,0,0,0-16.63,0q-3.32,3.56-3.31,10.39T189,88.29a10.58,10.58,0,0,0,8.19,3.61A11.19,11.19,0,0,0,205.55,88.29Z"/><path class="cls-2" d="M305.84,35.45l-25,70.52H259.34l-25-70.52h18.28l17.47,53.24,17.58-53.24Z"/><path class="cls-2" d="M318.25,41.43a8.62,8.62,0,0,1-2.87-6.58,8.75,8.75,0,0,1,2.87-6.68,10.41,10.41,0,0,1,7.38-2.66,10.3,10.3,0,0,1,7.28,2.66,8.74,8.74,0,0,1,2.86,6.68,8.61,8.61,0,0,1-2.86,6.58,10.26,10.26,0,0,1-7.28,2.66A10.37,10.37,0,0,1,318.25,41.43Zm15.92,8.49V106H317v-56Z"/><path class="cls-2" d="M374.75,51.52a21.71,21.71,0,0,1,10.34-2.41,23.26,23.26,0,0,1,12.56,3.52,24.36,24.36,0,0,1,8.89,10,33.61,33.61,0,0,1,3.26,15.17,33.92,33.92,0,0,1-3.26,15.22,24.58,24.58,0,0,1-8.89,10.14,23,23,0,0,1-12.56,3.57,21.65,21.65,0,0,1-10.34-2.36,18.29,18.29,0,0,1-6.94-6.28V106H350.64V31.64h17.17V57.85A17.72,17.72,0,0,1,374.75,51.52Zm14,16.23A11.77,11.77,0,0,0,380,64.08a11.58,11.58,0,0,0-8.69,3.72c-2.38,2.47-3.57,5.86-3.57,10.14s1.19,7.67,3.57,10.15a12,12,0,0,0,17.43,0q3.62-3.77,3.61-10.2T388.76,67.75Z"/><path class="cls-2" d="M475.39,82.06H436.52q.41,5.22,3.36,8a10.27,10.27,0,0,0,7.29,2.77q6.42,0,8.93-5.43h18.29a25.06,25.06,0,0,1-5.08,10,25.41,25.41,0,0,1-9.19,6.93,29.56,29.56,0,0,1-12.35,2.51,30,30,0,0,1-14.67-3.52,25,25,0,0,1-10-10,31,31,0,0,1-3.62-15.27A31.38,31.38,0,0,1,423,62.67a24.64,24.64,0,0,1,10-10,30.34,30.34,0,0,1,14.77-3.52,29.94,29.94,0,0,1,14.46,3.42,24.55,24.55,0,0,1,9.9,9.74A29.65,29.65,0,0,1,475.69,77,44.08,44.08,0,0,1,475.39,82.06Zm-17.28-9.54a8.82,8.82,0,0,0-3-7,11.1,11.1,0,0,0-7.53-2.62,10.84,10.84,0,0,0-7.28,2.52,11.13,11.13,0,0,0-3.67,7.13Z"/></svg>