<svg id="Layer_1" data-name="Layer 1" xmlns="http://www.w3.org/2000/svg" viewBox="0 0 1024 897.5"><defs><style>.cls-1{fill:#526c19;}.cls-2{fill:#dcf048;}.cls-3{fill:#e9876f;}.cls-4{fill:#fff;}.cls-5{fill:#b8553f;}.cls-6{fill:#6f3a3c;}</style></defs><title>Mascot ONly</title><path class="cls-1" d="M519.89,111.45c58.5,2.72,110.44,29.6,150.24,79.74,25.65,32.33,42.08,69.7,51.11,109.42,11,48.28,30.76,92.08,56.4,134,18.48,30.21,33.57,62.19,41.53,97.12,18.49,81,3.91,156.1-42.15,224.7-40.48,60.31-96.58,101-166.3,120.39-129.55,36.09-243.17,5.6-333-94.08-74.72-83-89.22-181.23-51.57-286.44,10.63-29.69,26.17-57.2,41.79-84.54,14.21-24.89,24.85-51.06,30.68-79.26,10.24-49.52,27.61-96.28,58.26-137C396.18,143.34,447.27,112.5,519.89,111.45Z"/><path class="cls-2" d="M518.49,869.37c-85.44-.94-159.32-30.71-219-92.06C246.69,723,222.06,656.76,226,580.94c2.49-47.85,19.42-91.64,43.14-132.81S311.79,364,321.76,316.82c11.35-53.67,35.95-101.33,75.59-140.33,55-54.17,137.41-59.53,198.22-25.32C647,180.09,674.67,225,694,277.65a368.09,368.09,0,0,1,14.43,50.92c6.72,31.68,20.5,60.21,37.22,87.62,21.37,35,40.81,71,51.42,111.07,16.84,63.52,10.38,124.9-18.72,183.55-41.84,84.33-111.8,132.08-202,152.8A239.13,239.13,0,0,1,518.49,869.37Z"/><path class="cls-1" d="M507.39,391.21c-18.93.19-35.85-9.6-40.39-22.41-1.53-4.31-2.64-9.06,2.6-11.34,6-2.63,7.21,2.37,9.46,6.22,11.31,19.41,46,20.45,60.42,1.92,1.65-2.13,2.45-4.82,3.83-7.15,2-3.29,5.05-4.42,8.78-2.9,4,1.64,4,4.94,2.93,8.19-3.14,9.25-10.21,15.64-19.06,20.15C526.72,388.61,516.7,391.5,507.39,391.21Z"/><path class="cls-3" d="M651.59,329.64c5.35.43,9.46,3.87,9.7,11.12.27,8.17-11.85,20-20.45,19.65-7.2-.33-10.69-4.7-10.57-11.78C630.39,341,642.42,329.54,651.59,329.64Z"/><path class="cls-3" d="M370.42,352.45c-.05,5.84-6,9.55-12,7-7.83-3.33-13.39-9.23-16.93-17-1.52-3.31-1.8-6.75.57-9.77,2.79-3.55,6.85-3.53,10.69-2.66C359.28,331.51,370.47,346,370.42,352.45Z"/><circle class="cls-3" cx="519.93" cy="617.81" r="206.17"/><path class="cls-4" d="M564.23,601.37Q552,646.83,539.78,692.31c-2.27,8.43-4.92,16.81-6.91,25.28-1.08,4.6-2.42,9-10,8.57-6.62-.35-9.81-4.07-10.73-8.77-2.48-12.77-4.75-25.57-7.4-38.32q-11-53.27-22.32-106.48l-3.8-.23q-7.87,29.16-15.75,58.31c-2.17,8-4.62,16-6.67,24-1.31,5.15-4.27,9.18-11.9,9.51-7.37.32-9.33-4.45-11.69-8.27-7.43-12.06-11.92-25.11-22.73-38-8.16,13.07-22.65,13.3-37.91,12.86-13.32-.38-26.68.12-40,.14-5.73,0-10.9-1.45-11.23-6.21-.4-5.75,5.34-6.92,11.76-6.93,12.76,0,25.56-.5,38.28.05,11.17.48,18.23-1.9,23.29-10,3.32-5.28,5.09-13.53,16.24-13.49,11.79,0,11.23,8.76,15,14.06,5.37,7.55,9.57,15.57,15.25,25,7.71-11.5,8.36-22.56,11.31-33,6.75-24,12.35-48.17,18.71-72.22,1.32-5,2.66-11,12-10.69,8.54.25,9.22,6.12,10.12,10.54,5.38,26.36,10.27,52.78,15.36,79.17,4.52,23.35,9.09,46.68,16.69,70.08,6.08-24,12-48,18.31-72,3.44-13.07,7.31-26.08,11.38-39,1.13-3.63,2.33-7.9,9.27-8.11s8.64,4,10,7.6c6.23,17,12,34.13,18,51.17,2.36,6.64,5.18,13.18,7.91,20,1.4-1,2.73-1.48,2.95-2.16,5.49-17.15,20.53-21.31,42.67-19.53,18.35,1.47,37.09,0,55.65.24,8.14.08,20-2.16,19.47,7.81s-12.6,7.16-20.33,6.73c-19.68-1.07-39.35-1.2-59-1.5-10.63-.16-17.56,1.73-20.34,10.21-2.32,7.08-6.29,13.86-9.67,20.74-2,4-3.24,8.34-11.26,8.11-8.19-.24-10.82-4.07-12.34-9-3.22-10.48-6.1-21-9.76-31.4C574.55,618.68,573.22,609.67,564.23,601.37Z"/><path class="cls-2" d="M597.76,577.76c-4.11-24.46,8.13-39.57,33.66-44.21a165.75,165.75,0,0,1,25.66-2.71c6.82-.17,11,2.82,9.83,10.14-2.19,13.21-5.31,26-13.92,37-10.67,13.62-37,21.61-50.35,7.63.88-11.46,12.05-14.39,17.25-21.11-3.57,2.71-7.49,6.39-11.45,10.06C605.54,577.28,602.79,581.72,597.76,577.76Z"/><path class="cls-3" d="M597.83,577.76c9.76-1.37,13-11.72,21.18-15.42,2.57-1.17,3.94-4.52,8.7-4.59-6.26,11.89-18.52,17.43-25,27.89C599.2,584.18,597.38,581.67,597.83,577.76Z"/><circle class="cls-1" cx="416.13" cy="287.17" r="42.47"/><circle class="cls-4" cx="394.96" cy="273.92" r="12.13"/><circle class="cls-1" cx="606.68" cy="287.17" r="42.47"/><circle class="cls-4" cx="585.51" cy="273.92" r="12.13"/><path class="cls-5" d="M732.77,174.2c-4.32-1.11-6.11-4.07-7.36-8a164.43,164.43,0,0,0-51.83-77.32,53.73,53.73,0,0,0-5.43-4c-3-1.95-6.18-2.37-9.16.27-8.54,7.56-17.34,6.32-26.58,1.49-28.27-14.76-58.74-23.1-90.85-26C498.61,56.82,457.38,64,417.71,80.72c-26,10.94-48.86,26.36-69.91,44.45-2.8,2.41-5.71,4.92-9,6.49-4.19,2-8.54.86-12.72-.92-7.1-3-9.9-2.17-14.34,4.53a207.62,207.62,0,0,0-24.9,51.24,142.27,142.27,0,0,0-7.1,41.87c0,3.51-1,6.18-4.25,8-.29-2.57-.92-5.14-.8-7.68,1-21.2,5.37-41.79,14.41-61.32,5.09-11,11-21.6,16.76-32.7L297.27,131c-.82,1.29-1.55,2.49-2.34,3.67-14.47,21.65-24.48,45-29.32,70.16-2.73,14.21-4,28.58-2.56,43-1.09,1.16-2.19,2.32-3.28,3.49l-2-.58c-.19-6.24-.86-12.51-.5-18.73,2.08-36.49,13.15-70.29,34.73-101,1.82-2.6,1.9-6.26,3-9.37,1.27-3.7,1.88-8,4.26-10.92,19-23.55,42.29-42.53,68.78-58.09,22.76-13.39,47.28-22.7,72.63-30.21,5.88-1.74,11.83-3.25,17.75-4.87l37.5-5.07c4.67.1,9.34.39,14,.27,58.78-1.53,112.86,12.35,161.71,43.15C678.07,60,685.07,64,685.22,73.07c0,1.7,2.42,3.57,4.09,5q45.59,38.24,61,94.41a67.14,67.14,0,0,1,1.36,7.06,18.79,18.79,0,0,1-.25,3.42l-5-1.83c-3.07-18.53-10.18-35.65-19.61-51.91C716,110.46,701.77,94.34,685.06,80.06l-9.28,5.64a147.94,147.94,0,0,1,36,39.62C721.41,140.53,728.72,156.72,732.77,174.2Zm-76-94.93c-55.19-39-117.54-49.91-184.39-38.76-59.94,10-110.63,36.82-148.44,84.27,8.91,4.47,13.13,4,20-2C358.59,110.13,373.63,98,390.77,88.7c52-28.31,107-40.37,166.49-30.5,16.19,2.69,31.74,6.92,47.22,11.53,9.11,2.71,17.59,7.29,26.34,11.07,3.23,1.4,6.3,3.19,9.63,4.3C646.91,87.27,652.81,85.28,656.8,79.27Zm22.54-10.5c-1.09-1.17-2.69-3.93-5.14-5.35-13.7-7.94-27.05-16.7-41.56-23.05-39.31-17.2-81-24.51-124.53-22.56-41.33,1.85-80.75,11-118,28.55a249.4,249.4,0,0,0-49.43,30.18c-13.48,10.73-26.31,22.12-36.87,35.61-4.45,5.67-4.37,11.07.18,14.3s9.23,1.87,13.81-3.9c2.78-3.51,5.55-7,8.46-10.44,27-31.7,61.78-52.8,101.26-66.89a259.82,259.82,0,0,1,97.69-15c50,1.86,96.2,14.07,135.78,44.18a26.11,26.11,0,0,0,6.27,3.88C674.12,80.9,680.35,76.78,679.34,68.77Z"/><path class="cls-3" d="M263.05,247.8c-1.42-14.43-.17-28.8,2.56-43,4.84-25.16,14.85-48.51,29.32-70.16.79-1.18,1.52-2.38,2.34-3.67l8.56,3.68c-5.72,11.1-11.67,21.72-16.76,32.7-9,19.53-13.39,40.12-14.41,61.32-.12,2.54.51,5.11.8,7.68l0-.11-1.06,1.1Z"/><path class="cls-3" d="M732.77,174.2c-4-17.48-11.36-33.67-21-48.88a147.94,147.94,0,0,0-36-39.62l9.28-5.64c16.71,14.28,31,30.4,41.82,49.13,9.43,16.26,16.54,33.38,19.61,51.91Z"/><path class="cls-6" d="M265.88,234.48l1.06-1.1Z"/><path class="cls-4" d="M656.8,79.27c-4,6-9.89,8-16.35,5.83-3.33-1.11-6.4-2.9-9.63-4.3-8.75-3.78-17.23-8.36-26.34-11.07-15.48-4.61-31-8.84-47.22-11.53-59.48-9.87-114.45,2.19-166.49,30.5C373.63,98,358.59,110.13,344,122.76c-6.92,6-11.14,6.49-20,2,37.81-47.45,88.5-74.27,148.44-84.27C539.26,29.36,601.61,40.29,656.8,79.27Z"/><path class="cls-3" d="M679.34,68.77c1,8-5.22,12.13-12.13,9.5a26.11,26.11,0,0,1-6.27-3.88c-39.58-30.11-85.77-42.32-135.78-44.18a259.82,259.82,0,0,0-97.69,15C388,59.31,353.19,80.41,326.21,112.11c-2.91,3.42-5.68,6.93-8.46,10.44-4.58,5.77-9.29,7.12-13.81,3.9s-4.63-8.63-.18-14.3c10.56-13.49,23.39-24.88,36.87-35.61a249.4,249.4,0,0,1,49.43-30.18c37.3-17.57,76.72-26.7,118.05-28.55,43.57-1.95,85.22,5.36,124.53,22.56,14.51,6.35,27.86,15.11,41.56,23.05C676.65,64.84,678.25,67.6,679.34,68.77Z"/><path class="cls-5" d="M215.15,263.17c.91-1.39,2.17-2.68,2.67-4.19,8.12-24.69,35.48-34.87,54-30,4.36,1.15,8,.72,11.18-3,10.5-12.13,23.92-12,35.54-6,12.3,6.4,17.82,20.39,13.42,33.72-7.41,22.51-15.14,44.92-22.69,67.38-7,20.94-14.2,41.85-20.94,62.88-5.62,17.53-18.43,21.85-29.31,21.65-13.46-.25-25.6-11-27.31-24.79-.65-5.28-2.73-8-7.86-10.11a42.39,42.39,0,0,1-26.32-45.54,28,28,0,0,0,0-4.48Q206.31,292,215.15,263.17Zm88.91,54.58.19.06c7.53-22.25,15.28-44.44,22.5-66.79a22.41,22.41,0,0,0-15.26-28.44c-13.16-3.86-25.2,2.31-29.57,15.26q-14.57,43.1-29,86.22c-5.16,15.42-10.59,30.78-15.25,46.34-4.61,15.38,6.34,29.67,22.32,30,10.63.23,18.14-5.3,21.89-16.4Q293,350.92,304.06,317.75Zm-73.18,49.48q22.4-66,44.94-132.48a43.36,43.36,0,0,0-24.27-.81c-15.4,3.78-24.67,13.49-29.14,27.74-6.25,19.9-12.68,39.75-18.62,59.73a43.05,43.05,0,0,0-1.55,14.77C203.15,350.38,216.62,365.59,230.88,367.23Z"/><path class="cls-4" d="M304.06,317.75Q293,350.89,281.87,384c-3.75,11.1-11.26,16.63-21.89,16.4-16-.35-26.93-14.64-22.32-30,4.66-15.56,10.09-30.92,15.25-46.34q14.46-43.12,29-86.22c4.37-13,16.41-19.12,29.57-15.26A22.41,22.41,0,0,1,326.75,251c-7.22,22.35-15,44.54-22.5,66.79Z"/><path class="cls-3" d="M230.88,367.23c-14.26-1.64-27.73-16.85-28.64-31.05a43.05,43.05,0,0,1,1.55-14.77c5.94-20,12.37-39.83,18.62-59.73,4.47-14.25,13.74-24,29.14-27.74a43.36,43.36,0,0,1,24.27.81Q253.26,301.25,230.88,367.23Z"/><path class="cls-5" d="M817.22,259.09a27.61,27.61,0,0,0,.23,4.47,42.08,42.08,0,0,1-23.62,46.85c-5,2.37-6.91,5.21-7.25,10.52-.9,13.83-12.39,25.23-25.82,26.19-10.85.77-23.9-2.86-30.54-20.06-8-20.64-16.35-41.13-24.6-61.66-8.86-22-17.89-44-26.62-66.06-5.17-13.08-.48-27.33,11.43-34.37,11.25-6.65,24.65-7.47,35.84,4.08,3.41,3.52,7.05,3.76,11.34,2.38,18.18-5.84,46.09,2.87,55.65,27.08.59,1.48,1.93,2.7,2.91,4Q806.7,230.83,817.22,259.09Zm-80.59,67.63c4.4,10.88,12.23,16,22.83,15.2,15.93-1.19,26-16,20.52-31.14-5.56-15.29-11.88-30.33-18-45.45q-17-42.28-34-84.53c-5.13-12.69-17.52-18.21-30.43-13.66A22.27,22.27,0,0,0,684,196.33c8.52,21.92,17.56,43.66,26.38,65.48l.19-.07C719.26,283.4,727.89,305.08,736.63,326.72Zm76.72-52a43.33,43.33,0,0,0-2.41-14.67c-7.11-19.63-14.69-39.1-22.1-58.63-5.3-14-15.13-23.2-30.74-26.15a43.48,43.48,0,0,0-24.19,2.09q26.45,65.19,52.66,129.87C800.72,304.86,813.28,289,813.35,274.75Z"/><path class="cls-4" d="M710.58,261.74c8.68,21.66,17.31,43.34,26,65,4.4,10.88,12.23,16,22.83,15.2,15.93-1.19,26-16,20.52-31.14-5.56-15.29-11.88-30.33-18-45.45q-17-42.28-34-84.53c-5.13-12.69-17.52-18.21-30.43-13.66A22.27,22.27,0,0,0,684,196.33c8.52,21.92,17.56,43.66,26.38,65.48Z"/><path class="cls-3" d="M786.57,307.26c14.15-2.4,26.71-18.29,26.78-32.51a43.33,43.33,0,0,0-2.41-14.67c-7.11-19.63-14.69-39.1-22.1-58.63-5.3-14-15.13-23.2-30.74-26.15a43.48,43.48,0,0,0-24.19,2.09Q760.36,242.58,786.57,307.26Z"/></svg>