<svg id="Layer_1" data-name="Layer 1" xmlns="http://www.w3.org/2000/svg" viewBox="0 0 500 82.79"><defs><style>.cls-1{fill:#dcf048;stroke:#526c19;}.cls-1,.cls-2{stroke-miterlimit:10;stroke-width:0.6px;}.cls-2{fill:#e9876f;stroke:#b8553f;}</style></defs><title>Logo_LightMode_NameOnly_NoFont</title><path class="cls-1" d="M70.6,68.53H44.28L40.06,81h-18L47.6,10.48H67.49L93,81H74.82ZM66.18,55.27,57.44,29.46,48.8,55.27Z"/><path class="cls-1" d="M130,64.92l12.16-40H160.4L140.51,81h-21.2l-19.88-56h18.38Z"/><path class="cls-1" d="M182.34,78.28a25.83,25.83,0,0,1-10.34-10A30,30,0,0,1,168.23,53a29.7,29.7,0,0,1,3.82-15.21,25.88,25.88,0,0,1,10.44-10.1,33.25,33.25,0,0,1,29.74,0,25.88,25.88,0,0,1,10.44,10.1A29.7,29.7,0,0,1,226.49,53a29.44,29.44,0,0,1-3.87,15.22,26.19,26.19,0,0,1-10.54,10.1,31.61,31.61,0,0,1-14.92,3.51A31,31,0,0,1,182.34,78.28Zm23.21-15Q209,59.69,209,53t-3.36-10.34a11.41,11.41,0,0,0-16.63,0q-3.32,3.57-3.31,10.39T189,63.31a10.59,10.59,0,0,0,8.19,3.62A11.2,11.2,0,0,0,205.55,63.31Z"/><path class="cls-2" d="M305.84,10.48,280.83,81H259.34l-25-70.51h18.28l17.47,53.23,17.58-53.23Z"/><path class="cls-2" d="M318.25,16.45a8.62,8.62,0,0,1-2.87-6.58,8.76,8.76,0,0,1,2.87-6.68A10.41,10.41,0,0,1,325.63.53a10.3,10.3,0,0,1,7.28,2.66,8.75,8.75,0,0,1,2.86,6.68,8.61,8.61,0,0,1-2.86,6.58,10.26,10.26,0,0,1-7.28,2.66A10.37,10.37,0,0,1,318.25,16.45Zm15.92,8.49V81H317v-56Z"/><path class="cls-2" d="M374.75,26.55a21.59,21.59,0,0,1,10.34-2.41,23.25,23.25,0,0,1,12.56,3.51,24.39,24.39,0,0,1,8.89,10.05,33.57,33.57,0,0,1,3.26,15.16,33.89,33.89,0,0,1-3.26,15.22,24.68,24.68,0,0,1-8.89,10.15,23,23,0,0,1-12.56,3.56,21.65,21.65,0,0,1-10.34-2.36,18.29,18.29,0,0,1-6.94-6.28V81H350.64V6.66h17.17V32.87A17.62,17.62,0,0,1,374.75,26.55Zm14,16.22A11.81,11.81,0,0,0,380,39.1a11.58,11.58,0,0,0-8.69,3.72q-3.57,3.72-3.57,10.14t3.57,10.15a12,12,0,0,0,17.43,0q3.62-3.77,3.61-10.2T388.76,42.77Z"/><path class="cls-2" d="M475.39,57.08H436.52c.27,3.48,1.39,6.15,3.36,8a10.31,10.31,0,0,0,7.29,2.76q6.42,0,8.93-5.42h18.29a25.28,25.28,0,0,1-14.27,16.87,29.41,29.41,0,0,1-12.35,2.51,30.14,30.14,0,0,1-14.67-3.51,25.09,25.09,0,0,1-10-10A31,31,0,0,1,419.44,53,31.31,31.31,0,0,1,423,37.7a24.67,24.67,0,0,1,10-10.05,32.6,32.6,0,0,1,29.23-.1,24.61,24.61,0,0,1,9.9,9.74,29.68,29.68,0,0,1,3.56,14.77A44,44,0,0,1,475.39,57.08Zm-17.28-9.54a8.82,8.82,0,0,0-3-7,11.1,11.1,0,0,0-7.53-2.61,10.88,10.88,0,0,0-7.28,2.51,11.13,11.13,0,0,0-3.67,7.13Z"/></svg>