<svg id="Layer_1" data-name="Layer 1" xmlns="http://www.w3.org/2000/svg" viewBox="0 0 418 418"><defs><style>.cls-1{fill:#e9876f;}.cls-2{fill:#dcf048;}.cls-3{fill:#fff;stroke:#000;stroke-linecap:round;stroke-miterlimit:10;stroke-width:14px;}</style></defs><title>Logo_DarkMode_PitwithPlus</title><circle class="cls-1" cx="208.93" cy="208.81" r="208.24"/><path class="cls-2" d="M287.54,168.36c-4.15-24.71,8.21-40,34-44.65A169,169,0,0,1,347.45,121c6.89-.17,11.15,2.85,9.93,10.24-2.21,13.35-5.36,26.29-14.06,37.4-10.77,13.76-37.41,21.83-50.85,7.71.89-11.57,12.17-14.54,17.42-21.33-3.61,2.74-7.57,6.46-11.57,10.16C295.39,167.87,292.62,172.36,287.54,168.36Z"/><path class="cls-1" d="M287.6,168.36c9.87-1.39,13.17-11.84,21.4-15.58,2.6-1.18,4-4.56,8.79-4.63-6.33,12-18.71,17.61-25.26,28.17C289,174.84,287.16,172.31,287.6,168.36Z"/><line class="cls-3" x1="96.2" y1="208.81" x2="321.66" y2="208.81"/><line class="cls-3" x1="208.93" y1="96.08" x2="208.93" y2="321.54"/></svg>